<?xml version="1.0" encoding="UTF-8" standalone="no" ?>
<!DOCTYPE svg PUBLIC "-//W3C//DTD SVG 1.1//EN" "http://www.w3.org/Graphics/SVG/1.1/DTD/svg11.dtd">
<svg xmlns="http://www.w3.org/2000/svg" xmlns:xlink="http://www.w3.org/1999/xlink" version="1.1" width="600" height="600" viewBox="0 0 600 600" xml:space="preserve">
<desc>Created with Fabric.js 4.2.0</desc>
<defs>
</defs>
<g transform="matrix(1 0 0 1 300 300)" id="d47947a4-4a6e-49cd-b951-07ead9e63448"  >
<rect style="stroke: none; stroke-width: 1; stroke-dasharray: none; stroke-linecap: butt; stroke-dashoffset: 0; stroke-linejoin: miter; stroke-miterlimit: 4; fill: rgb(255,255,255); fill-rule: nonzero; opacity: 1;" vector-effect="non-scaling-stroke"  x="-300" y="-300" rx="0" ry="0" width="600" height="600" />
</g>
<g transform="matrix(Infinity NaN NaN Infinity 0 0)" id="2c1cf6df-b2b3-4aa9-aff0-e42b946ee0af"  >
</g>
<g transform="matrix(0.97 0 0 0.97 300 280)"  >
<g style="" vector-effect="non-scaling-stroke"   >
		<g transform="matrix(1 0 0 1 0 0)"  >
<rect style="stroke: none; stroke-width: 1; stroke-dasharray: none; stroke-linecap: butt; stroke-dashoffset: 0; stroke-linejoin: miter; stroke-miterlimit: 4; fill: rgb(28,28,28); fill-rule: nonzero; opacity: 1;" vector-effect="non-scaling-stroke"  x="-500" y="-500" rx="0" ry="0" width="1000" height="1000" />
</g>
		<g transform="matrix(1 0 0 1 -67.36 -117.18)"  >
<path style="stroke: none; stroke-width: 1; stroke-dasharray: none; stroke-linecap: butt; stroke-dashoffset: 0; stroke-linejoin: miter; stroke-miterlimit: 4; fill: rgb(94,135,178); fill-rule: nonzero; opacity: 1;" vector-effect="non-scaling-stroke"  transform=" translate(-432.64, -382.82)" d="M 380.609375 515.128906 L 349.390625 497.289062 L 484.671875 250.511719 L 515.890625 268.351562 Z M 380.609375 515.128906" stroke-linecap="round" />
</g>
		<g transform="matrix(1 0 0 1 -309.24 -95.86)"  >
<path style="stroke: none; stroke-width: 1; stroke-dasharray: none; stroke-linecap: butt; stroke-dashoffset: 0; stroke-linejoin: miter; stroke-miterlimit: 4; fill: rgb(28,28,28); fill-rule: nonzero; opacity: 1;" vector-effect="non-scaling-stroke"  transform=" translate(-70.44, -87.98)" d="M 106.75 153.703125 L 70.328125 54.859375 L 34.125 153.703125 L 6.6875 153.703125 L 57.5 22.25 L 83.390625 22.25 L 134.1875 153.703125 Z M 106.75 153.703125" stroke-linecap="round" />
</g>
		<g transform="matrix(1 0 0 1 70.02 -125.64)"  >
<path style="stroke: none; stroke-width: 1; stroke-dasharray: none; stroke-linecap: butt; stroke-dashoffset: 0; stroke-linejoin: miter; stroke-miterlimit: 4; fill: rgb(102,102,102); fill-rule: nonzero; opacity: 1;" vector-effect="non-scaling-stroke"  transform=" translate(-570.02, -374.36)" d="M 484.539062 248.742188 L 515.757812 232.390625 L 655.5 499.976562 L 624.28125 516.332031 Z M 484.539062 248.742188" stroke-linecap="round" />
</g>
		<g transform="matrix(1 0 0 1 -72.46 164.82)"  >
<path style="stroke: none; stroke-width: 1; stroke-dasharray: none; stroke-linecap: butt; stroke-dashoffset: 0; stroke-linejoin: miter; stroke-miterlimit: 4; fill: rgb(102,102,102); fill-rule: nonzero; opacity: 1;" vector-effect="non-scaling-stroke"  transform=" translate(-427.54, -664.82)" d="M 348.75 547.378906 L 379.96875 531.027344 L 506.328125 782.261719 L 475.109375 798.613281 Z M 348.75 547.378906" stroke-linecap="round" />
</g>
		<g transform="matrix(1 0 0 1 62.9 171.5)"  >
<path style="stroke: none; stroke-width: 1; stroke-dasharray: none; stroke-linecap: butt; stroke-dashoffset: 0; stroke-linejoin: miter; stroke-miterlimit: 4; fill: rgb(94,135,178); fill-rule: nonzero; opacity: 1;" vector-effect="non-scaling-stroke"  transform=" translate(-562.9, -671.5)" d="M 621.621094 527.300781 L 652.839844 545.140625 L 504.179688 815.699219 L 472.960938 797.859375 Z M 621.621094 527.300781" stroke-linecap="round" />
</g>
		<g transform="matrix(1 0 0 1 0 -262.72)"  >
<path style="stroke: none; stroke-width: 1; stroke-dasharray: none; stroke-linecap: butt; stroke-dashoffset: 0; stroke-linejoin: miter; stroke-miterlimit: 4; fill: rgb(28,28,28); fill-rule: nonzero; opacity: 1;" vector-effect="non-scaling-stroke"  transform=" translate(-500, -237.28)" d="M 300.042969 223.15625 L 699.957031 223.15625 L 699.957031 251.402344 L 300.042969 251.402344 Z M 300.042969 223.15625" stroke-linecap="round" />
</g>
		<g transform="matrix(1 0 0 1 0 312.12)"  >
<path style="stroke: none; stroke-width: 1; stroke-dasharray: none; stroke-linecap: butt; stroke-dashoffset: 0; stroke-linejoin: miter; stroke-miterlimit: 4; fill: rgb(28,28,28); fill-rule: nonzero; opacity: 1;" vector-effect="non-scaling-stroke"  transform=" translate(-500, -812.12)" d="M 300.050781 797.996094 L 699.949219 797.996094 L 699.949219 826.242188 L 300.050781 826.242188 Z M 300.050781 797.996094" stroke-linecap="round" />
</g>
		<g transform="matrix(1 0 0 1 -36.36 12)"  >
<path style="stroke: none; stroke-width: 1; stroke-dasharray: none; stroke-linecap: butt; stroke-dashoffset: 0; stroke-linejoin: miter; stroke-miterlimit: 4; fill: rgb(28,28,28); fill-rule: nonzero; opacity: 1;" vector-effect="non-scaling-stroke"  transform=" translate(-463.64, -512)" d="M 263.691406 497.878906 L 663.585938 497.878906 L 663.585938 526.121094 L 263.691406 526.121094 Z M 263.691406 497.878906" stroke-linecap="round" />
</g>
		<g transform="matrix(1 0 0 1 0 32.84)"  >
<path style="stroke: none; stroke-width: 1; stroke-dasharray: none; stroke-linecap: butt; stroke-dashoffset: 0; stroke-linejoin: miter; stroke-miterlimit: 4; fill: rgb(28,28,28); fill-rule: nonzero; opacity: 1;" vector-effect="non-scaling-stroke"  transform=" translate(-500, -532.84)" d="M 300.050781 518.71875 L 699.949219 518.71875 L 699.949219 546.960938 L 300.050781 546.960938 Z M 300.050781 518.71875" stroke-linecap="round" />
</g>
		<g transform="matrix(1 0 0 1 0.62 11.62)"  >
<path style="stroke: none; stroke-width: 1; stroke-dasharray: none; stroke-linecap: butt; stroke-dashoffset: 0; stroke-linejoin: miter; stroke-miterlimit: 4; fill: rgb(102,102,102); fill-rule: nonzero; opacity: 1;" vector-effect="non-scaling-stroke"  transform=" translate(-500.62, -511.62)" d="M 346.011719 520.539062 L 346.011719 502.699219 L 655.226562 502.699219 L 655.226562 520.539062 Z M 346.011719 520.539062" stroke-linecap="round" />
</g>
		<g transform="matrix(1 0 0 1 0 33.26)"  >
<path style="stroke: none; stroke-width: 1; stroke-dasharray: none; stroke-linecap: butt; stroke-dashoffset: 0; stroke-linejoin: miter; stroke-miterlimit: 4; fill: rgb(94,135,178); fill-rule: nonzero; opacity: 1;" vector-effect="non-scaling-stroke"  transform=" translate(-500, -533.26)" d="M 345.394531 542.179688 L 345.394531 524.339844 L 654.605469 524.339844 L 654.605469 542.179688 Z M 345.394531 542.179688" stroke-linecap="round" />
</g>
</g>
</g>
</svg>